# xmcd
#
# Track frame offsets:
#	150
#	21627
#	46100
#	61662
#	84365
#	102715
#	119357
#	134225
#	155485
#	171575
#
# Disc length: 2572 seconds
#
# Revision: 0
# Processed by: cddbd v1.5.2PL0 Copyright (c) Steve Scherf et al.
# Submitted via: EasyCDDAExtractor 16.0.9.1
#
DISCID=8e0a0a0a
DTITLE=George Benson - N-027 George Benson Give Me the Night
DYEAR=1900
DGENRE=
TTITLE0=Love x Love
TTITLE1=Off Broadway
TTITLE2=Moody's Mood
TTITLE3=Give Me the Night
TTITLE4=What's on Your Mind
TTITLE5=Dinorah, Dinorah
TTITLE6=Love Dance
TTITLE7=Star of a Story (X)
TTITLE8=Midnight Love Affair
TTITLE9=Turn Out the Lamplight
EXTD=
EXTT0=
EXTT1=
EXTT2=
EXTT3=
EXTT4=
EXTT5=
EXTT6=
EXTT7=
EXTT8=
EXTT9=
PLAYORDER=
